<svg width="10" height="13" viewBox="0 0 10 13" fill="none" xmlns="http://www.w3.org/2000/svg">
<path d="M2.988 5.352V12.672H0V0.384001H2.988V2.172C3.42 1.468 3.96 0.930001 4.608 0.558001C5.256 0.186001 5.968 0 6.744 0C7.16709 0.00192883 7.58831 0.0563451 7.998 0.162001C8.38189 0.252688 8.7514 0.396046 9.096 0.587999L7.86 3.12C7.596 2.96 7.29 2.832 6.942 2.736C6.594 2.64 6.272 2.592 5.976 2.592C5.464 2.592 4.98 2.724 4.524 2.988C4.08152 3.23954 3.70197 3.58832 3.414 4.008C3.13 4.424 2.988 4.872 2.988 5.352Z" fill="white"/>
</svg>
